<?xml version="1.0" encoding="UTF-8"?>
<!--!
  SPDX-FileCopyrightText: 2024 Fonticons, Inc.

  SPDX-License-Identifier: CC-BY-4.0 AND OFL-1.1 AND MIT

  Font Awesome Free v7.1.0 by @fontawesome - https://fontawesome.com
  License - https://fontawesome.com/license/free
  (Icons: CC BY 4.0, Fonts: SIL OFL 1.1, Code: MIT License)
  Copyright 2025 Fonticons, Inc.
-->
<svg xmlns="http://www.w3.org/2000/svg" version="2.0">
  <symbol id="bars" viewBox="0 0 448 512">
    <path fill="currentColor"
      d="M0 96C0 78.3 14.3 64 32 64l384 0c17.7 0 32 14.3 32 32s-14.3 32-32 32L32 128C14.3 128 0 113.7 0 96zM0 256c0-17.7 14.3-32 32-32l384 0c17.7 0 32 14.3 32 32s-14.3 32-32 32L32 288c-17.7 0-32-14.3-32-32zM448 416c0 17.7-14.3 32-32 32L32 448c-17.7 0-32-14.3-32-32s14.3-32 32-32l384 0c17.7 0 32 14.3 32 32z" />
  </symbol>
  <symbol id="bluesky" viewBox="0 0 576 512">
    <path fill="currentColor"
      d="M407.8 294.7c-3.3-.4-6.7-.8-10-1.3 3.4 .4 6.7 .9 10 1.3zM288 227.1C261.9 176.4 190.9 81.9 124.9 35.3 61.6-9.4 37.5-1.7 21.6 5.5 3.3 13.8 0 41.9 0 58.4S9.1 194 15 213.9c19.5 65.7 89.1 87.9 153.2 80.7 3.3-.5 6.6-.9 10-1.4-3.3 .5-6.6 1-10 1.4-93.9 14-177.3 48.2-67.9 169.9 120.3 124.6 164.8-26.7 187.7-103.4 22.9 76.7 49.2 222.5 185.6 103.4 102.4-103.4 28.1-156-65.8-169.9-3.3-.4-6.7-.8-10-1.3 3.4 .4 6.7 .9 10 1.3 64.1 7.1 133.6-15.1 153.2-80.7 5.9-19.9 15-138.9 15-155.5s-3.3-44.7-21.6-52.9c-15.8-7.1-40-14.9-103.2 29.8-66.1 46.6-137.1 141.1-163.2 191.8z" />
  </symbol>
  <symbol id="github" viewBox="0 0 512 512">
    <path fill="currentColor"
      d="M173.9 397.4c0 2-2.3 3.6-5.2 3.6-3.3 .3-5.6-1.3-5.6-3.6 0-2 2.3-3.6 5.2-3.6 3-.3 5.6 1.3 5.6 3.6zm-31.1-4.5c-.7 2 1.3 4.3 4.3 4.9 2.6 1 5.6 0 6.2-2s-1.3-4.3-4.3-5.2c-2.6-.7-5.5 .3-6.2 2.3zm44.2-1.7c-2.9 .7-4.9 2.6-4.6 4.9 .3 2 2.9 3.3 5.9 2.6 2.9-.7 4.9-2.6 4.6-4.6-.3-1.9-3-3.2-5.9-2.9zM252.8 8c-138.7 0-244.8 105.3-244.8 244 0 110.9 69.8 205.8 169.5 239.2 12.8 2.3 17.3-5.6 17.3-12.1 0-6.2-.3-40.4-.3-61.4 0 0-70 15-84.7-29.8 0 0-11.4-29.1-27.8-36.6 0 0-22.9-15.7 1.6-15.4 0 0 24.9 2 38.6 25.8 21.9 38.6 58.6 27.5 72.9 20.9 2.3-16 8.8-27.1 16-33.7-55.9-6.2-112.3-14.3-112.3-110.5 0-27.5 7.6-41.3 23.6-58.9-2.6-6.5-11.1-33.3 2.6-67.9 20.9-6.5 69 27 69 27 20-5.6 41.5-8.5 62.8-8.5s42.8 2.9 62.8 8.5c0 0 48.1-33.6 69-27 13.7 34.7 5.2 61.4 2.6 67.9 16 17.7 25.8 31.5 25.8 58.9 0 96.5-58.9 104.2-114.8 110.5 9.2 7.9 17 22.9 17 46.4 0 33.7-.3 75.4-.3 83.6 0 6.5 4.6 14.4 17.3 12.1 100-33.2 167.8-128.1 167.8-239 0-138.7-112.5-244-251.2-244zM105.2 352.9c-1.3 1-1 3.3 .7 5.2 1.6 1.6 3.9 2.3 5.2 1 1.3-1 1-3.3-.7-5.2-1.6-1.6-3.9-2.3-5.2-1zm-10.8-8.1c-.7 1.3 .3 2.9 2.3 3.9 1.6 1 3.6 .7 4.3-.7 .7-1.3-.3-2.9-2.3-3.9-2-.6-3.6-.3-4.3 .7zm32.4 35.6c-1.6 1.3-1 4.3 1.3 6.2 2.3 2.3 5.2 2.6 6.5 1 1.3-1.3 .7-4.3-1.3-6.2-2.2-2.3-5.2-2.6-6.5-1zm-11.4-14.7c-1.6 1-1.6 3.6 0 5.9s4.3 3.3 5.6 2.3c1.6-1.3 1.6-3.9 0-6.2-1.4-2.3-4-3.3-5.6-2z" />
  </symbol>
  <symbol id="mastodon" viewBox="0 0 448 512">
    <path fill="currentColor"
      d="M433 179.1c0-97.2-63.7-125.7-63.7-125.7-62.5-28.7-228.6-28.4-290.5 0 0 0-63.7 28.5-63.7 125.7 0 115.7-6.6 259.4 105.6 289.1 40.5 10.7 75.3 13 103.3 11.4 50.8-2.8 79.3-18.1 79.3-18.1l-1.7-36.9s-36.3 11.4-77.1 10.1c-40.4-1.4-83-4.4-89.6-54-.6-4.6-.9-9.3-.9-13.9 85.6 20.9 158.7 9.1 178.7 6.7 56.1-6.7 105-41.3 111.2-72.9 9.8-49.8 9-121.5 9-121.5zM357.9 304.3l-46.6 0 0-114.2c0-49.7-64-51.6-64 6.9l0 62.5-46.3 0 0-62.5c0-58.5-64-56.6-64-6.9l0 114.2-46.7 0c0-122.1-5.2-147.9 18.4-175 25.9-28.9 79.8-30.8 103.8 6.1l11.6 19.5 11.6-19.5c24.1-37.1 78.1-34.8 103.8-6.1 23.7 27.3 18.4 53 18.4 175l0 0z" />
  </symbol>
  <symbol id="rss" viewBox="0 0 448 512">
    <path fill="currentColor"
      d="M64 32C28.7 32 0 60.7 0 96L0 416c0 35.3 28.7 64 64 64l320 0c35.3 0 64-28.7 64-64l0-320c0-35.3-28.7-64-64-64L64 32zM96 136c0-13.3 10.7-24 24-24 137 0 248 111 248 248 0 13.3-10.7 24-24 24s-24-10.7-24-24c0-110.5-89.5-200-200-200-13.3 0-24-10.7-24-24zm0 96c0-13.3 10.7-24 24-24 83.9 0 152 68.1 152 152 0 13.3-10.7 24-24 24s-24-10.7-24-24c0-57.4-46.6-104-104-104-13.3 0-24-10.7-24-24zm0 120a32 32 0 1 1 64 0 32 32 0 1 1 -64 0z" />
  </symbol>
  <symbol id="steam" viewBox="0 0 512 512">
    <path fill="currentColor"
      d="M504 256c0 137-111.2 248-248.4 248-113.8 0-209.6-76.3-239-180.4l95.2 39.3c6.4 32.1 34.9 56.4 68.9 56.4 39.2 0 71.9-32.4 70.2-73.5l84.5-60.2c52.1 1.3 95.8-40.9 95.8-93.5 0-51.6-42-93.5-93.7-93.5s-93.7 42-93.7 93.5l0 1.2-59.2 85.7c-15.5-.9-30.7 3.4-43.5 12.1L8 236.1C18.2 108.4 125.1 8 255.6 8 392.8 8 504 119 504 256zM163.7 384.3l-30.5-12.6c5.6 11.6 15.3 20.8 27.2 25.8 26.9 11.2 57.8-1.6 69-28.4 5.4-13 5.5-27.3 .1-40.3S214 305.6 201 300.2c-12.9-5.4-26.7-5.2-38.9-.6l31.5 13c19.8 8.2 29.2 30.9 20.9 50.7-8.3 19.9-31 29.2-50.8 21zM337.5 129.8a62.3 62.3 0 1 1 0 124.6 62.3 62.3 0 1 1 0-124.6zm.1 109a46.8 46.8 0 1 0 0-93.6 46.8 46.8 0 1 0 0 93.6z" />
  </symbol>
  <symbol id="tumblr" viewBox="0 0 320 512">
    <path fill="currentColor"
      d="M309.9 480.3c-13.6 14.5-50 31.7-97.4 31.7-120.8 0-147-88.8-147-140.6l0-144-47.5 0c-5.5 0-10-4.5-10-10l0-68c0-7.2 4.5-13.6 11.3-16 62-21.8 81.5-76 84.3-117.1 .8-11 6.5-16.3 16.1-16.3l70.9 0c5.5 0 10 4.5 10 10l0 115.2 83 0c5.5 0 10 4.4 10 9.9l0 81.7c0 5.5-4.5 10-10 10l-83.4 0 0 133.2c0 34.2 23.7 53.6 68 35.8 4.8-1.9 9-3.2 12.7-2.2 3.5 .9 5.8 3.4 7.4 7.9l22 64.3c1.8 5 3.3 10.6-.4 14.5z" />
  </symbol>
</svg>
