<?xml version="1.0" encoding="UTF-8"?>
<!--!
  SPDX-FileCopyrightText: 2024 Fonticons, Inc.

  SPDX-License-Identifier: CC-BY-4.0 AND OFL-1.1 AND MIT

  Font Awesome Free 6.7.2 by @fontawesome - https://fontawesome.com
  License - https://fontawesome.com/license/free (Icons: CC BY 4.0, Fonts: SIL OFL 1.1, Code: MIT License)
  Copyright 2024 Fonticons, Inc.
-->
<svg xmlns="http://www.w3.org/2000/svg" version="2.0">
  <symbol id="bluesky" viewBox="0 0 488 512">
    <path
      d="M64 32C28.7 32 0 60.7 0 96L0 416c0 35.3 28.7 64 64 64l320 0c35.3 0 64-28.7 64-64l0-320c0-35.3-28.7-64-64-64L64 32zM224 247.4c14.5-30 54-85.8 90.7-113.3c26.5-19.9 69.3-35.2 69.3 13.7c0 9.8-5.6 82.1-8.9 93.8c-11.4 40.8-53 51.2-90 44.9c64.7 11 81.2 47.5 45.6 84c-67.5 69.3-97-17.4-104.6-39.6c0 0 0 0 0 0l-.3-.9c-.9-2.6-1.4-4.1-1.8-4.1s-.9 1.5-1.8 4.1c-.1 .3-.2 .6-.3 .9c0 0 0 0 0 0c-7.6 22.2-37.1 108.8-104.6 39.6c-35.5-36.5-19.1-73 45.6-84c-37 6.3-78.6-4.1-90-44.9c-3.3-11.7-8.9-84-8.9-93.8c0-48.9 42.9-33.5 69.3-13.7c36.7 27.5 76.2 83.4 90.7 113.3z" />
  </symbol>
  <symbol id="github" viewBox="0 0 488 512">
    <path
      d="M448 96c0-35.3-28.7-64-64-64H64C28.7 32 0 60.7 0 96V416c0 35.3 28.7 64 64 64H384c35.3 0 64-28.7 64-64V96zM265.8 407.7c0-1.8 0-6 .1-11.6c.1-11.4 .1-28.8 .1-43.7c0-15.6-5.2-25.5-11.3-30.7c37-4.1 76-9.2 76-73.1c0-18.2-6.5-27.3-17.1-39c1.7-4.3 7.4-22-1.7-45c-13.9-4.3-45.7 17.9-45.7 17.9c-13.2-3.7-27.5-5.6-41.6-5.6s-28.4 1.9-41.6 5.6c0 0-31.8-22.2-45.7-17.9c-9.1 22.9-3.5 40.6-1.7 45c-10.6 11.7-15.6 20.8-15.6 39c0 63.6 37.3 69 74.3 73.1c-4.8 4.3-9.1 11.7-10.6 22.3c-9.5 4.3-33.8 11.7-48.3-13.9c-9.1-15.8-25.5-17.1-25.5-17.1c-16.2-.2-1.1 10.2-1.1 10.2c10.8 5 18.4 24.2 18.4 24.2c9.7 29.7 56.1 19.7 56.1 19.7c0 9 .1 21.7 .1 30.6c0 4.8 .1 8.6 .1 10c0 4.3-3 9.5-11.5 8C106 393.6 59.8 330.8 59.8 257.4c0-91.8 70.2-161.5 162-161.5s166.2 69.7 166.2 161.5c.1 73.4-44.7 136.3-110.7 158.3c-8.4 1.5-11.5-3.7-11.5-8zm-90.5-54.8c-.2-1.5 1.1-2.8 3-3.2c1.9-.2 3.7 .6 3.9 1.9c.3 1.3-1 2.6-3 3c-1.9 .4-3.7-.4-3.9-1.7zm-9.1 3.2c-2.2 .2-3.7-.9-3.7-2.4c0-1.3 1.5-2.4 3.5-2.4c1.9-.2 3.7 .9 3.7 2.4c0 1.3-1.5 2.4-3.5 2.4zm-14.3-2.2c-1.9-.4-3.2-1.9-2.8-3.2s2.4-1.9 4.1-1.5c2 .6 3.3 2.1 2.8 3.4c-.4 1.3-2.4 1.9-4.1 1.3zm-12.5-7.3c-1.5-1.3-1.9-3.2-.9-4.1c.9-1.1 2.8-.9 4.3 .6c1.3 1.3 1.8 3.3 .9 4.1c-.9 1.1-2.8 .9-4.3-.6zm-8.5-10c-1.1-1.5-1.1-3.2 0-3.9c1.1-.9 2.8-.2 3.7 1.3c1.1 1.5 1.1 3.3 0 4.1c-.9 .6-2.6 0-3.7-1.5zm-6.3-8.8c-1.1-1.3-1.3-2.8-.4-3.5c.9-.9 2.4-.4 3.5 .6c1.1 1.3 1.3 2.8 .4 3.5c-.9 .9-2.4 .4-3.5-.6zm-6-6.4c-1.3-.6-1.9-1.7-1.5-2.6c.4-.6 1.5-.9 2.8-.4c1.3 .7 1.9 1.8 1.5 2.6c-.4 .9-1.7 1.1-2.8 .4z" />
  </symbol>
  <symbol id="mastodon" viewBox="0 0 448 512">
    <path
      d="M433 179.11c0-97.2-63.71-125.7-63.71-125.7-62.52-28.7-228.56-28.4-290.48 0 0 0-63.72 28.5-63.72 125.7 0 115.7-6.6 259.4 105.63 289.1 40.51 10.7 75.32 13 103.33 11.4 50.81-2.8 79.32-18.1 79.32-18.1l-1.7-36.9s-36.31 11.4-77.12 10.1c-40.41-1.4-83-4.4-89.63-54a102.54 102.54 0 0 1-.9-13.9c85.63 20.9 158.65 9.1 178.75 6.7 56.12-6.7 105-41.3 111.23-72.9 9.8-49.8 9-121.5 9-121.5zm-75.12 125.2h-46.63v-114.2c0-49.7-64-51.6-64 6.9v62.5h-46.33V197c0-58.5-64-56.6-64-6.9v114.2H90.19c0-122.1-5.2-147.9 18.41-175 25.9-28.9 79.82-30.8 103.83 6.1l11.6 19.5 11.6-19.5c24.11-37.1 78.12-34.8 103.83-6.1 23.71 27.3 18.4 53 18.4 175z" />
  </symbol>
  <symbol id="rss" viewBox="0 0 448 512">
    <path
      d="M64 32C28.7 32 0 60.7 0 96L0 416c0 35.3 28.7 64 64 64l320 0c35.3 0 64-28.7 64-64l0-320c0-35.3-28.7-64-64-64L64 32zM96 136c0-13.3 10.7-24 24-24c137 0 248 111 248 248c0 13.3-10.7 24-24 24s-24-10.7-24-24c0-110.5-89.5-200-200-200c-13.3 0-24-10.7-24-24zm0 96c0-13.3 10.7-24 24-24c83.9 0 152 68.1 152 152c0 13.3-10.7 24-24 24s-24-10.7-24-24c0-57.4-46.6-104-104-104c-13.3 0-24-10.7-24-24zm0 120a32 32 0 1 1 64 0 32 32 0 1 1 -64 0z" />
  </symbol>
  <symbol id="steam" viewBox="0 0 512 512">
    <path
      d="M165.6 309.1c18.6 7.7 27.3 28.9 19.6 47.4s-29 27.2-47.6 19.4l-28.5-11.8c5 10.6 13.8 19.4 25.4 24.2c25.2 10.5 54.1-1.4 64.6-26.5c5.1-12.1 5.1-25.5 .1-37.7c-5.1-12.1-14.5-21.6-26.7-26.7c-12.1-5-25-4.8-36.4-.5l29.5 12.2zM448 96c0-35.3-28.7-64-64-64H64C28.7 32 0 60.7 0 96V240.7l116.6 48.1c12-8.2 26.2-12.1 40.7-11.3l55.4-80.2v-1.1c0-48.2 39.3-87.5 87.6-87.5s87.6 39.3 87.6 87.5c0 49.2-40.9 88.7-89.6 87.5l-79 56.3c1.6 38.5-29.1 68.8-65.7 68.8c-31.8 0-58.5-22.7-64.5-52.7L0 319.2V416c0 35.3 28.7 64 64 64H384c35.3 0 64-28.7 64-64V96zM241.9 196.2a58.4 58.4 0 1 0 116.8 0 58.4 58.4 0 1 0 -116.8 0zm14.6-.1a43.9 43.9 0 1 1 87.8 0 43.9 43.9 0 1 1 -87.8 0z" />
  </symbol>
  <symbol id="tumblr" viewBox="0 0 448 512">
    <path
      d="M448 96c0-35.3-28.7-64-64-64H64C28.7 32 0 60.7 0 96V416c0 35.3 28.7 64 64 64H384c35.3 0 64-28.7 64-64V96zM256.8 416c-75.5 0-91.9-55.5-91.9-87.9v-90H135.2c-3.4 0-6.2-2.8-6.2-6.2V189.4c0-4.5 2.8-8.5 7.1-10c38.8-13.7 50.9-47.5 52.7-73.2c.5-6.9 4.1-10.2 10-10.2h44.3c3.4 0 6.2 2.8 6.2 6.2v72h51.9c3.4 0 6.2 2.8 6.2 6.2v51.1c0 3.4-2.8 6.2-6.2 6.2H249.1V321c0 21.4 14.8 33.5 42.5 22.4c3-1.2 5.6-2 8-1.4c2.2 .5 3.6 2.1 4.6 4.9L318 387.1c1 3.2 2 6.7-.3 9.1c-8.5 9.1-31.2 19.8-60.9 19.8z" />
  </symbol>
</svg>
